<svg width="142" height="142" viewBox="0 0 142 142" fill="none" xmlns="http://www.w3.org/2000/svg">
<g id="Desktop">
<g id="Sabores">
<g id="Container">
<g id="Selo" clip-path="url(#clip0_7057_67)">


<g id="fi_3400159">
<g id="Group">
<path id="Vector" d="M78.4772 63.3329C77.0997 66.1243 74.2237 68.0492 70.9061 68.0492C66.2537 68.0492 62.4686 64.2641 62.4686 59.6117C62.4686 58.4391 62.7093 57.3218 63.1434 56.3061L59.454 54.6154C59.0648 54.463 58.6283 54.4916 58.2626 54.6932C54.7366 56.6364 51.971 58.8417 50.0425 61.2481C47.9614 63.8452 46.9061 66.6065 46.9061 69.4555V70.8617H94.9061L78.4772 63.3329Z" fill="#FBF5E7"/>
<path id="Vector_2" d="M70.9061 65.2369C74.0078 65.2369 76.5311 62.7136 76.5311 59.6119C76.5311 58.2333 76.0317 56.9695 75.2053 55.9902C76.4544 54.8706 78.4965 54.7681 79.1873 54.7681C79.964 54.7681 80.5936 54.1384 80.5936 53.3618C80.5936 52.5852 79.964 51.9556 79.1873 51.9556C77.8269 51.9556 74.7721 52.2144 72.8732 54.3427C72.2605 54.1132 71.5979 53.9869 70.9061 53.9869C67.8045 53.9869 65.2811 56.5103 65.2811 59.6119C65.2811 62.7136 67.8045 65.2369 70.9061 65.2369Z" fill="#FBF5E7"/>
<path id="Vector_3" d="M46.9061 86.3306C46.9061 87.1072 47.5358 87.7368 48.3124 87.7368H93.4999C94.2765 87.7368 94.9061 87.1072 94.9061 86.3306V81.1743H46.9061V86.3306Z" fill="#FBF5E7"/>
<path id="Vector_4" d="M46.9061 73.6743H94.9061V78.3618H46.9061V73.6743Z" fill="#FBF5E7"/>
</g>
</g>
</g>
</g>
</g>
</g>
<defs>
<clipPath id="clip0_7057_67">
<rect width="141.812" height="141.802" fill="white"/>
</clipPath>
</defs>
</svg>
